<svg width="32" height="32" viewBox="0 0 32 32" fill="none" xmlns="http://www.w3.org/2000/svg">
  <!-- Background circle with gradient -->
  <defs>
    <linearGradient id="bgGradient" x1="0%" y1="0%" x2="100%" y2="100%">
      <stop offset="0%" style="stop-color:#3B82F6;stop-opacity:1" />
      <stop offset="50%" style="stop-color:#1E40AF;stop-opacity:1" />
      <stop offset="100%" style="stop-color:#7C3AED;stop-opacity:1" />
    </linearGradient>
    <linearGradient id="shieldGradient" x1="0%" y1="0%" x2="100%" y2="100%">
      <stop offset="0%" style="stop-color:#FFFFFF;stop-opacity:1" />
      <stop offset="100%" style="stop-color:#E5E7EB;stop-opacity:1" />
    </linearGradient>
    <filter id="glow">
      <feGaussianBlur stdDeviation="1" result="coloredBlur"/>
      <feMerge> 
        <feMergeNode in="coloredBlur"/>
        <feMergeNode in="SourceGraphic"/>
      </feMerge>
    </filter>
  </defs>
  
  <!-- Background -->
  <circle cx="16" cy="16" r="16" fill="url(#bgGradient)"/>
  
  <!-- Shield outline -->
  <path d="M16 3L24 7V15C24 20.5 20.5 25 16 28C11.5 25 8 20.5 8 15V7L16 3Z" 
        fill="url(#shieldGradient)" 
        stroke="#1E40AF" 
        stroke-width="0.5"
        filter="url(#glow)"/>
  
  <!-- AI Circuit pattern inside shield -->
  <g stroke="#3B82F6" stroke-width="1" fill="none" opacity="0.8">
    <!-- Central node -->
    <circle cx="16" cy="16" r="2" fill="#3B82F6"/>
    
    <!-- Connection lines -->
    <line x1="16" y1="14" x2="16" y2="10"/>
    <line x1="16" y1="18" x2="16" y2="22"/>
    <line x1="14" y1="16" x2="10" y2="16"/>
    <line x1="18" y1="16" x2="22" y2="16"/>
    
    <!-- Corner nodes -->
    <circle cx="16" cy="10" r="1" fill="#60A5FA"/>
    <circle cx="16" cy="22" r="1" fill="#60A5FA"/>
    <circle cx="10" cy="16" r="1" fill="#60A5FA"/>
    <circle cx="22" cy="16" r="1" fill="#60A5FA"/>
    
    <!-- Diagonal connections -->
    <line x1="14.5" y1="14.5" x2="12" y2="12"/>
    <line x1="17.5" y1="14.5" x2="20" y2="12"/>
    <line x1="14.5" y1="17.5" x2="12" y2="20"/>
    <line x1="17.5" y1="17.5" x2="20" y2="20"/>
    
    <!-- Corner circuit nodes -->
    <circle cx="12" cy="12" r="0.8" fill="#93C5FD"/>
    <circle cx="20" cy="12" r="0.8" fill="#93C5FD"/>
    <circle cx="12" cy="20" r="0.8" fill="#93C5FD"/>
    <circle cx="20" cy="20" r="0.8" fill="#93C5FD"/>
  </g>
  
  <!-- Security checkmark -->
  <path d="M13 16L15 18L19 14" 
        stroke="#10B981" 
        stroke-width="2" 
        stroke-linecap="round" 
        stroke-linejoin="round" 
        fill="none"
        opacity="0.9"/>
</svg>